<svg width="1251" height="948" viewBox="0 0 1251 948" fill="none" xmlns="http://www.w3.org/2000/svg">
<g clip-path="url(#clip0_489_1284)">
<path d="M240.67 753.35C205.4 734.96 199.95 701.73 222.88 668.97C235.48 651.11 250.72 636.4 267.73 624.24C285.19 611.64 304.55 601.72 324.79 593.45C397.08 564.09 472.34 557.59 549.3 568.88C552.77 569.41 556.06 571.45 561.05 573.41C555.54 613.73 535.83 644.67 507.4 671.59C481.07 696.67 453.03 718.34 422.56 734.89C387.35 754 348.88 766.08 306.01 768.31C304.33 768.39 302.64 768.42 300.95 768.42C280.65 768.42 258.47 762.73 240.67 753.34M822.73 532.91C819.24 495.28 830.6 463.04 850.58 432.7C890.75 371.88 941.04 323.37 1012.5 302.81C1022.42 299.91 1033.38 298.61 1044.29 298.67C1048.69 298.67 1053.01 298.93 1057.29 299.39C1063.26 300.05 1069.11 301.03 1074.69 302.41C1091.82 306.82 1103.52 315.8 1109.5 327.82C1115.99 340.76 1115.81 357.24 1108.57 375.1C1093.2 413.37 1065.11 441.82 1032.28 464.87C1025.45 469.66 1018.55 474.26 1011.52 478.46C957.62 511.49 898.05 529.15 834.35 534.47C834.04 534.5 833.73 534.52 833.42 534.52C830.45 534.52 827.19 533.49 822.74 532.9M369.63 1.73C349.87 3.25 330.09 5.28 310.46 7.97C306.78 8.43 303.17 8.96 299.49 9.55C204.16 23.08 110.38 49.54 17.3301 86.57C-24.0999 103.11 14.9101 126.37 69.5401 134.78C70.8501 134.9 72.1601 135.1 73.4801 135.3C79.4501 136.15 97.9801 130.3 112.96 126.5H113.02C117.68 125.32 122.01 124.33 125.56 123.81C135.68 122.29 145.92 120.9 155.83 119.67C158.33 119.35 160.82 119.07 163.25 118.83C163.78 118.76 164.37 118.69 164.96 118.63H165.22C166.98 118.43 168.77 118.24 170.54 117.97C433.27 83.76 495.19 156.26 503.13 213.65C503.2 213.71 503.2 213.78 503.13 213.85C503.46 214.89 503.66 215.95 503.85 217.05C504.12 218.57 504.31 220.14 504.45 221.72C504.59 223.76 504.65 225.79 504.65 227.83C504.65 229.46 504.58 231.05 504.52 232.68C504.52 233.41 504.44 234.06 504.38 234.79C504.18 236.62 503.98 238.39 503.72 240.24C503.46 242.2 503.12 244.18 502.67 246.15C502.13 249.02 501.34 251.99 500.37 254.94C500.37 255.07 500.3 255.14 500.3 255.27C500.22 255.53 500.16 255.8 500.11 255.99C500.03 256.33 499.91 256.65 499.84 256.92C499.58 257.77 499.31 258.56 498.98 259.42C498.07 262.1 497.01 264.81 495.84 267.49C495.84 267.69 495.77 267.88 495.58 268.09C495.38 268.74 495.05 269.33 494.73 269.99C494.4 270.77 494.01 271.63 493.61 272.42C493.01 273.67 492.37 274.92 491.71 276.16C490.65 278.27 489.54 280.3 488.35 282.41C488.16 282.86 487.89 283.32 487.5 283.85C486.72 285.29 485.86 286.8 484.88 288.32C484.09 289.69 483.17 291.08 482.25 292.45C480.21 295.6 477.98 298.75 475.55 301.98C474.57 303.35 473.51 304.79 472.33 306.24C470.82 308.28 469.18 310.37 467.4 312.42C465.36 314.91 463.27 317.41 461.03 319.89C456.64 324.95 451.83 330.01 446.72 335.14C441.66 340.19 436.54 345.05 431.28 349.85C428.99 351.95 426.63 354.05 424.27 356.09C423.67 356.68 423.02 357.2 422.49 357.73C421.91 358.26 421.37 358.71 420.85 359.18C420.07 359.9 419.27 360.62 418.56 361.22C417.64 362.07 416.65 362.92 415.66 363.78C414.82 364.5 414.09 365.08 413.5 365.62C412.33 366.67 411.67 367.19 411.67 367.19H411.59C404.58 373.23 397.35 379.15 389.93 385.05C385.93 388.34 381.86 391.54 377.73 394.84C367.35 403.05 356.65 411.38 345.68 420.12C343.46 421.89 341.22 423.67 338.98 425.45C323.88 437.52 308.06 450.46 291.57 464.85C289.61 466.55 287.62 468.25 285.66 470.02C269.91 483.95 253.5 499.25 236.42 516.38C236.55 516.12 265.45 437.98 295.85 369.96C296.91 367.53 297.96 365.09 299 362.73C301.03 358.01 302.94 353.41 304.91 348.93C317.26 319.59 327.31 293.78 334.86 271.51C335.72 269.15 336.44 266.84 337.21 264.62C338.6 260.43 339.85 256.41 341.03 252.54C341.81 250.11 342.55 247.68 343.19 245.39C343.26 245.19 343.32 244.99 343.32 244.86C344.64 240.46 345.76 236.33 346.75 232.32C347.8 228.12 348.72 224.18 349.49 220.44C350.36 216.43 351.01 212.62 351.54 209.08C351.86 207.04 352.14 205.07 352.32 203.24C349.11 195.61 344.57 189.77 338.67 185.3C332.7 181.04 326.32 179.2 319.37 179.73C314.17 180.11 293.1 195.34 255.87 225.37C240.5 237.84 227.89 248.28 218.04 256.82C204 268.97 195.45 277.18 192.5 281.51C190.14 285 184.88 297.28 176.67 318.42C176.08 319.8 175.56 321.23 174.97 322.75C174.51 323.93 174.05 325.18 173.52 326.42C171.68 331.41 169.65 336.8 167.48 342.52C166.83 344.35 166.11 346.19 165.45 348.1C159.08 365.24 151.58 385.66 143.06 409.35C141.29 414.29 139.45 419.41 137.54 424.66C119.94 472.73 104.38 516.01 90.7201 554.62C74.7701 599.67 61.4401 638.22 50.7301 670.32C20.9801 758.26 6.34012 806.12 6.99012 813.88C9.36012 845.73 34.0501 869.89 81.2501 886.29C116.78 898.38 153.56 902.99 191.44 900.16C239.57 896.55 288.03 887.88 336.89 874.16C399.21 856.68 462.05 831.01 525.55 797.19C554.38 781.63 580.04 765.67 602.57 749.25C609.4 744.32 615.98 739.28 622.27 734.21C624.43 737.76 626.8 741.24 629.3 744.53C655.43 779.92 697.52 803.36 754.33 812.62C771.28 815.44 788.48 818.26 805.67 818.26C828.27 818.26 850.66 817.35 872.92 815.7C996.5 806.5 1115.75 773.93 1234.21 737.42C1234.79 737.23 1235.34 736.99 1235.89 736.68C1243.88 732.04 1241.55 719.64 1232.7 716.98C1230.88 716.43 1229.07 716.15 1227.32 716.35C1193.17 719.82 1159.15 726.46 1124.87 728.88C1059.87 733.55 995.97 728.75 934.98 708.32C920 703.33 905.23 697.43 890.66 690.47C876.54 683.7 863.73 674.45 849.35 664C841.26 658.03 832.6 651.73 823.02 645.22C841.41 638.46 851.72 634.59 861.83 630.85C899.07 617.26 935.63 602.28 971.03 585.28C975.49 583.17 979.95 581 984.36 578.78C1046.08 548.17 1104.12 511.15 1156.6 464.12C1186.09 437.73 1211.17 407.92 1229.16 373.17C1233.11 365.55 1236.78 357.68 1240.01 349.54C1254.31 313.75 1253.32 280.19 1240.33 253.67C1223.76 219.79 1187.59 197.33 1138.34 196.14C1118.19 195.61 1097.76 196.4 1077.8 199.35C1070.32 200.47 1062.82 201.71 1055.47 203.09C1030.33 207.75 1006.02 213.87 982.45 221.34C867.19 257.72 770.24 326.87 686.89 418.99C685.83 420.11 684.86 421.23 683.87 422.35C675.73 431.55 668.3 441.01 661.35 450.78C648.41 443.7 633.51 437.72 616.44 432.85C570.4 419.91 515.18 415.78 450.5 420.64C511.7 371 556.34 330.87 584.39 300.15C636.4 242.56 660.7 191.74 657.48 147.86C652.95 87.58 616.45 45.3 547.81 20.86C509.08 6.98 464.64 0 414.44 0C399.98 0 385.06 0.57 369.64 1.73" fill="url(#paint0_linear_489_1284)"/>
<path d="M926.89 869.45C929.69 869.45 931.83 869.27 933.31 868.91C934.79 868.55 935.93 868.19 936.73 867.83C937.53 867.47 938.29 867.29 939.01 867.29C939.49 867.29 939.79 867.31 939.91 867.35C940.03 867.39 940.21 867.49 940.45 867.65L943.57 889.14C943.41 889.3 942.95 889.48 942.19 889.68C941.43 889.88 940.77 889.98 940.21 889.98C939.49 889.98 939.09 889.78 939.01 889.38C938.61 886.82 937.81 884.42 936.61 882.18C935.41 879.94 933.93 878.12 932.17 876.72C930.41 875.32 928.53 874.62 926.53 874.62H915.6V929.49C915.6 931.97 915.64 934.13 915.72 935.97C915.8 937.81 916.08 939.33 916.56 940.53C916.8 941.01 917.42 941.41 918.42 941.73C919.42 942.05 920.48 942.27 921.6 942.39C922.72 942.51 923.52 942.61 924 942.69C924.32 943.09 924.46 943.81 924.42 944.85C924.38 945.89 924.24 946.61 924 947.01C921.76 946.77 919.04 946.57 915.84 946.41C912.64 946.25 909.8 946.17 907.32 946.17C904.84 946.17 902.04 946.25 898.92 946.41C895.8 946.57 893.08 946.77 890.76 947.01C890.52 946.61 890.38 945.89 890.34 944.85C890.3 943.81 890.44 943.09 890.76 942.69C891.32 942.61 892.14 942.51 893.22 942.39C894.3 942.27 895.36 942.05 896.4 941.73C897.44 941.41 898.04 941.01 898.2 940.53C898.68 939.33 898.96 937.81 899.04 935.97C899.12 934.13 899.16 931.97 899.16 929.49V874.62H888.24C886.24 874.62 884.36 875.32 882.6 876.72C880.84 878.12 879.36 879.94 878.16 882.18C876.96 884.42 876.16 886.82 875.76 889.38C875.68 889.78 875.28 889.98 874.56 889.98C874 889.98 873.34 889.88 872.58 889.68C871.82 889.48 871.36 889.3 871.2 889.14L874.32 867.65C874.56 867.49 874.74 867.39 874.86 867.35C874.98 867.31 875.28 867.29 875.76 867.29C876.48 867.29 877.24 867.47 878.04 867.83C878.84 868.19 879.98 868.55 881.46 868.91C882.94 869.27 885.08 869.45 887.88 869.45H926.9H926.89Z" fill="#FAFAFA"/>
<path d="M965.79 869.45C966.75 869.45 968.45 869.43 970.89 869.39C973.33 869.35 976.13 869.29 979.29 869.21C982.45 869.13 985.67 869.07 988.96 869.03C992.24 868.99 995.22 868.93 997.9 868.85C1000.58 868.77 1002.6 868.73 1003.96 868.73C1004.36 871.69 1004.88 874.65 1005.52 877.61C1006.16 880.57 1006.76 883.37 1007.32 886.01C1007.16 886.17 1006.76 886.31 1006.12 886.43C1005.48 886.55 1004.96 886.61 1004.56 886.61C1003.6 886.61 1003 886.29 1002.76 885.65C1001.48 882.37 999.94 879.59 998.14 877.31C996.34 875.03 993.64 873.89 990.04 873.89H980.32C979.04 873.89 977.82 873.95 976.66 874.07C975.5 874.19 974.76 874.57 974.44 875.21C974.2 875.85 974.06 876.65 974.02 877.61C973.98 878.57 973.96 879.69 973.96 880.97V903.42C973.96 903.74 974.48 904.02 975.52 904.26C976.56 904.5 977.72 904.62 979 904.62H985.12C987.44 904.62 989.22 904.42 990.46 904.02C991.7 903.62 992.68 902.82 993.4 901.62C994.12 900.42 994.8 898.7 995.44 896.46C995.6 895.82 996.08 895.5 996.88 895.5C997.92 895.5 998.64 895.7 999.04 896.1V918.67C998.96 918.75 998.7 918.83 998.26 918.91C997.82 918.99 997.4 919.03 997 919.03C995.96 919.03 995.4 918.75 995.32 918.19C994.6 915.39 993.88 913.55 993.16 912.67C992.44 911.79 991.8 911.23 991.24 910.99C989.88 910.43 986.92 910.15 982.36 910.15C981.32 910.15 980.14 910.19 978.82 910.27C977.5 910.35 976.36 910.51 975.4 910.75C974.44 910.99 973.96 911.35 973.96 911.83V932.54C973.96 933.7 974.02 934.92 974.14 936.2C974.26 937.48 974.48 938.48 974.8 939.2C975.2 940 976.2 940.6 977.8 941C979.4 941.4 980.96 941.6 982.48 941.6H990.16C992.4 941.6 994.46 941.28 996.34 940.64C998.22 940 999.8 939.04 1001.08 937.76C1002.36 936.48 1003.48 934.96 1004.44 933.2C1005.4 931.44 1006.4 929.24 1007.44 926.6C1007.6 926.12 1008.12 925.88 1009 925.88C1009.64 925.88 1010.36 925.96 1011.16 926.12C1011.96 926.28 1012.44 926.44 1012.6 926.6C1011.88 928.68 1011.08 930.96 1010.2 933.44C1009.32 935.92 1008.52 938.32 1007.8 940.64C1007.08 942.96 1006.56 945 1006.24 946.76H964.76C960.72 946.76 957.28 946.78 954.43 946.82C951.59 946.86 949.77 946.88 948.97 946.88C948.73 946.48 948.59 945.76 948.55 944.72C948.51 943.68 948.65 942.96 948.97 942.56C949.53 942.48 950.37 942.38 951.49 942.26C952.61 942.14 953.69 941.94 954.73 941.66C955.77 941.38 956.37 941 956.53 940.52C957.01 939.32 957.29 937.8 957.37 935.96C957.45 934.12 957.49 931.96 957.49 929.48V886.38C957.49 883.82 957.45 881.64 957.37 879.84C957.29 878.04 957.01 876.54 956.53 875.34C956.37 874.78 955.77 874.38 954.73 874.14C953.69 873.9 952.61 873.74 951.49 873.66C950.37 873.58 949.53 873.54 948.97 873.54C948.65 873.14 948.51 872.38 948.55 871.26C948.59 870.14 948.73 869.42 948.97 869.1C951.61 869.26 954.45 869.36 957.49 869.4C960.53 869.44 963.29 869.46 965.77 869.46L965.79 869.45Z" fill="#FAFAFA"/>
<path d="M1060.27 868.37C1064.11 868.37 1068.27 868.55 1072.76 868.91C1077.24 869.27 1081.2 869.81 1084.65 870.53C1084.73 870.85 1084.97 871.87 1085.37 873.59C1085.77 875.31 1086.23 877.23 1086.75 879.35C1087.27 881.47 1087.71 883.39 1088.07 885.11C1088.43 886.83 1088.61 887.89 1088.61 888.29C1088.61 888.61 1088.29 888.97 1087.65 889.37C1087.01 889.77 1086.33 889.97 1085.61 889.97C1085.29 889.97 1084.99 889.95 1084.71 889.91C1084.43 889.87 1084.17 889.73 1083.93 889.49C1083.61 888.37 1083.03 886.91 1082.19 885.11C1081.35 883.31 1080.09 881.51 1078.41 879.71C1076.73 877.91 1074.51 876.41 1071.75 875.21C1068.99 874.01 1065.53 873.41 1061.37 873.41C1055.85 873.41 1051.41 874.91 1048.04 877.91C1044.68 880.91 1042.24 884.83 1040.72 889.68C1039.2 894.52 1038.44 899.7 1038.44 905.23C1038.44 909.79 1038.92 914.27 1039.88 918.68C1040.84 923.08 1042.34 927.04 1044.38 930.56C1046.42 934.08 1049.04 936.9 1052.24 939.02C1055.44 941.14 1059.24 942.2 1063.65 942.2C1067.17 942.2 1070.09 941.72 1072.41 940.76C1074.73 939.8 1076.65 938.6 1078.17 937.16C1079.85 935.64 1081.29 933.8 1082.49 931.64C1083.69 929.48 1084.63 927.52 1085.31 925.76C1085.99 924 1086.37 922.96 1086.45 922.64C1088.13 922.64 1089.49 923.08 1090.53 923.96C1090.53 924.28 1090.37 925.34 1090.05 927.14C1089.73 928.94 1089.31 930.94 1088.79 933.14C1088.27 935.34 1087.75 937.3 1087.23 939.02C1086.71 940.74 1086.21 941.68 1085.73 941.84C1082.05 943.12 1078.21 944.36 1074.2 945.56C1070.2 946.76 1065.48 947.36 1060.03 947.36C1054.58 947.36 1049.3 946.4 1044.42 944.48C1039.54 942.56 1035.25 939.88 1031.57 936.44C1027.89 933 1024.99 928.92 1022.87 924.19C1020.75 919.47 1019.69 914.35 1019.69 908.82C1019.69 903.29 1020.75 897.86 1022.87 892.97C1024.99 888.09 1027.91 883.81 1031.63 880.12C1035.35 876.44 1039.65 873.56 1044.54 871.48C1049.42 869.4 1054.66 868.36 1060.27 868.36V868.37Z" fill="#FAFAFA"/>
<path d="M1115.26 869.69C1117.74 869.69 1120.56 869.63 1123.72 869.51C1126.88 869.39 1129.58 869.21 1131.82 868.97C1132.06 869.29 1132.2 869.99 1132.24 871.07C1132.28 872.15 1132.14 872.89 1131.82 873.29C1131.34 873.29 1130.52 873.35 1129.36 873.47C1128.2 873.59 1127.12 873.79 1126.12 874.07C1125.12 874.35 1124.5 874.77 1124.26 875.33C1123.86 876.37 1123.62 877.69 1123.54 879.29C1123.46 880.89 1123.42 882.73 1123.42 884.81V903.06C1123.42 903.14 1123.46 903.26 1123.54 903.42C1125.86 903.5 1128.16 903.58 1130.44 903.66C1132.72 903.74 1135.18 903.78 1137.82 903.78C1139.98 903.78 1142.28 903.74 1144.72 903.66C1147.16 903.58 1149.42 903.5 1151.5 903.42C1151.66 903.18 1151.74 903.02 1151.74 902.94L1151.62 886.37C1151.62 883.81 1151.58 881.63 1151.5 879.83C1151.42 878.03 1151.14 876.53 1150.66 875.33C1150.5 874.77 1149.9 874.35 1148.86 874.07C1147.82 873.79 1146.76 873.59 1145.68 873.47C1144.6 873.35 1143.78 873.29 1143.22 873.29C1142.9 872.89 1142.76 872.15 1142.8 871.07C1142.84 869.99 1142.98 869.29 1143.22 868.97C1145.54 869.21 1148.28 869.39 1151.44 869.51C1154.6 869.63 1157.42 869.69 1159.9 869.69C1162.38 869.69 1165.2 869.63 1168.36 869.51C1171.52 869.39 1174.22 869.21 1176.46 868.97C1176.7 869.29 1176.84 869.99 1176.88 871.07C1176.92 872.15 1176.78 872.89 1176.46 873.29C1175.98 873.29 1175.16 873.35 1174 873.47C1172.84 873.59 1171.76 873.79 1170.76 874.07C1169.76 874.35 1169.14 874.77 1168.9 875.33C1168.5 876.37 1168.26 877.69 1168.18 879.29C1168.1 880.89 1168.06 882.73 1168.06 884.81V931.03C1168.06 933.11 1168.1 934.95 1168.18 936.55C1168.26 938.15 1168.5 939.47 1168.9 940.51C1169.14 940.99 1169.76 941.39 1170.76 941.71C1171.76 942.03 1172.84 942.25 1174 942.37C1175.16 942.49 1175.98 942.59 1176.46 942.67C1176.78 943.07 1176.92 943.79 1176.88 944.83C1176.84 945.87 1176.7 946.59 1176.46 946.99C1174.22 946.75 1171.48 946.55 1168.24 946.39C1165 946.23 1162.14 946.15 1159.66 946.15C1157.18 946.15 1154.4 946.23 1151.32 946.39C1148.24 946.55 1145.54 946.75 1143.22 946.99C1142.98 946.59 1142.84 945.87 1142.8 944.83C1142.76 943.79 1142.9 943.07 1143.22 942.67C1143.78 942.59 1144.6 942.49 1145.68 942.37C1146.76 942.25 1147.82 942.03 1148.86 941.71C1149.9 941.39 1150.5 940.99 1150.66 940.51C1151.14 939.31 1151.42 937.79 1151.5 935.95C1151.58 934.11 1151.62 931.95 1151.62 929.47V910.14C1151.62 909.98 1151.54 909.78 1151.38 909.54C1149.22 909.46 1147.02 909.4 1144.78 909.36C1142.54 909.32 1140.22 909.3 1137.82 909.3C1133.5 909.3 1130.34 909.32 1128.34 909.36C1126.34 909.4 1125.06 909.46 1124.5 909.54C1123.94 909.62 1123.58 909.7 1123.42 909.78C1123.34 909.86 1123.34 910.02 1123.42 910.26V931.03C1123.42 933.11 1123.46 934.95 1123.54 936.55C1123.62 938.15 1123.86 939.47 1124.26 940.51C1124.5 940.99 1125.12 941.39 1126.12 941.71C1127.12 942.03 1128.2 942.25 1129.36 942.37C1130.52 942.49 1131.34 942.59 1131.82 942.67C1132.14 943.07 1132.28 943.79 1132.24 944.83C1132.2 945.87 1132.06 946.59 1131.82 946.99C1129.58 946.75 1126.84 946.55 1123.6 946.39C1120.36 946.23 1117.5 946.15 1115.02 946.15C1112.54 946.15 1109.74 946.23 1106.62 946.39C1103.5 946.55 1100.78 946.75 1098.46 946.99C1098.22 946.59 1098.08 945.87 1098.04 944.83C1098 943.79 1098.14 943.07 1098.46 942.67C1099.02 942.59 1099.86 942.49 1100.98 942.37C1102.1 942.25 1103.18 942.03 1104.22 941.71C1105.26 941.39 1105.86 940.99 1106.02 940.51C1106.5 939.31 1106.78 937.79 1106.86 935.95C1106.94 934.11 1106.98 931.95 1106.98 929.47V886.37C1106.98 883.81 1106.94 881.63 1106.86 879.83C1106.78 878.03 1106.5 876.53 1106.02 875.33C1105.86 874.77 1105.26 874.35 1104.22 874.07C1103.18 873.79 1102.1 873.59 1100.98 873.47C1099.86 873.35 1099.02 873.29 1098.46 873.29C1098.14 872.89 1098 872.15 1098.04 871.07C1098.08 869.99 1098.22 869.29 1098.46 868.97C1100.78 869.21 1103.54 869.39 1106.74 869.51C1109.94 869.63 1112.78 869.69 1115.26 869.69Z" fill="#FAFAFA"/>
</g>
<defs>
<linearGradient id="paint0_linear_489_1284" x1="1365" y1="93.5" x2="-76.5" y2="932" gradientUnits="userSpaceOnUse">
<stop stop-color="#F1722C"/>
<stop offset="1" stop-color="#F6902D"/>
</linearGradient>
<clipPath id="clip0_489_1284">
<rect width="1250.37" height="947.37" fill="white"/>
</clipPath>
</defs>
</svg>
