<svg width="121" height="88" viewBox="0 0 121 88" fill="none" xmlns="http://www.w3.org/2000/svg">
<path d="M50.9041 0C52.7739 1.87488 54.6066 3.6537 56.3744 5.50069C58.7047 7.93648 58.6274 11.7265 56.2291 14.3204C54.2357 16.4804 52.1713 18.5753 50.2211 20.7725C45.7615 25.799 45.4833 33.1591 49.4856 38.5141C52.8605 43.0324 58.6212 45.0839 64.1101 43.7266C69.5247 42.3847 73.7866 37.7889 74.5499 32.2263C75.3071 26.6946 73.3848 22.1918 68.9931 18.7519C68.8139 18.6125 68.6161 18.4978 68.3781 18.3428C66.6999 19.9698 65.0218 21.5751 63.3714 23.2113C62.8831 23.6948 62.914 24.4168 63.3467 24.8755C63.7948 25.3496 64.5149 25.362 65.065 24.8817C65.4483 24.547 65.8068 24.1813 66.2302 23.7785C67.9701 25.3496 68.9437 27.2803 69.0611 29.5921C69.296 34.2034 66.0973 37.8881 61.4336 38.449C57.2861 38.9511 53.2591 35.9203 52.4649 31.591C51.9549 28.8019 52.6874 26.2917 54.6777 24.2495C61.1864 17.5681 67.7229 10.9146 74.2903 4.20841C74.7323 4.61438 74.9177 4.77243 75.0877 4.94597C80.014 9.88574 84.9465 14.8193 89.8667 19.7684C95.5718 25.5077 95.5935 34.2344 89.8945 39.9768C83.4507 46.4692 76.9884 52.9491 70.5075 59.4074C64.8981 64.998 56.1859 65.0352 50.5704 59.4632C44.04 52.9832 37.5437 46.4692 31.0752 39.9272C25.4102 34.1941 25.4597 25.4891 31.1463 19.7746C37.5282 13.3628 43.9257 6.9665 50.3169 0.560914C50.4962 0.378075 50.6816 0.210731 50.9041 0ZM50.8392 5.03584C50.8021 5.06373 50.7125 5.11331 50.6445 5.18149C44.7818 11.0634 38.8603 16.8894 33.0748 22.8457C29.3816 26.6481 29.4928 33.2458 33.22 37.0297C39.8925 43.801 46.5805 50.5567 53.3704 57.2102C57.3139 61.0778 63.6681 61.0747 67.5591 57.2784C74.417 50.5877 81.142 43.7576 87.8702 36.9367C89.879 34.9007 90.7197 32.2976 90.6146 29.4589C90.5095 26.6202 89.3784 24.1968 87.3448 22.1794C83.2282 18.0918 79.1425 13.9733 75.0444 9.87024C74.8837 9.7091 74.7137 9.56035 74.6117 9.46428C72.8594 11.2276 71.1379 12.963 69.3949 14.717C69.639 14.8875 69.9265 15.0982 70.2201 15.2935C76.4537 19.443 79.3403 26.487 77.8104 33.8439C75.9438 42.8217 66.8823 48.9855 57.8641 47.4082C49.909 46.0167 43.9102 39.6421 43.221 31.6468C42.7853 26.5768 44.2873 22.0647 47.7085 18.2623C49.6556 16.0961 51.6799 14.0012 53.6547 11.8598C54.7426 10.6791 54.8909 9.11409 53.9205 8.04495C52.9717 6.99129 51.89 6.0523 50.8392 5.03584ZM65.2968 28.7027C61.7705 28.7182 60.1696 27.5716 59.4619 24.4323C58.7418 25.142 58.0495 25.8083 57.3757 26.4901C55.7717 28.1201 55.3916 30.2956 56.359 32.2449C57.3201 34.1786 59.3259 35.2168 61.5758 34.8387C64.8147 34.2933 66.2209 30.7822 65.2968 28.7027Z" fill="#234487"/>
<path d="M36.2484 87.6547C34.6599 87.6547 33.0775 87.6671 31.4983 87.6392C31.3128 87.6361 31.0439 87.4377 30.9636 87.2642C30.7102 86.7095 30.5124 86.1269 30.3269 85.5443C30.2033 85.1538 30.021 84.9771 29.5728 84.9833C27.7123 85.0112 25.8487 85.0081 23.9851 84.9864C23.5494 84.9802 23.3578 85.1383 23.2218 85.5412C22.9838 86.2384 22.8633 87.1898 22.3595 87.5183C21.8156 87.8747 20.8853 87.6454 20.125 87.6547C19.2597 87.6671 18.3912 87.6578 17.4084 87.6578C17.5043 87.3727 17.563 87.1433 17.6557 86.9295C19.8222 81.8379 22.001 76.7525 24.1489 71.6515C24.3653 71.1402 24.6249 70.976 25.1595 70.9946C26.4328 71.0348 27.7123 70.9853 28.9856 71.0256C29.2236 71.0318 29.5821 71.227 29.6656 71.4253C31.8846 76.7711 34.0789 82.1292 36.2731 87.4842C36.2793 87.4997 36.267 87.5276 36.2484 87.6547ZM26.8315 75.9591C26.1083 77.8898 25.4655 79.6004 24.8041 81.3575C26.1763 81.3575 27.4435 81.3575 28.7291 81.3575C28.7168 81.2646 28.7199 81.1871 28.6951 81.122C28.1017 79.4734 27.5053 77.8247 26.8315 75.9591Z" fill="#244487"/>
<path d="M16.8059 73.204C15.8169 74.4002 14.9083 75.4941 13.9718 76.6252C12.9241 75.7172 11.7868 75.0819 10.4363 74.8743C8.70555 74.6109 7.14482 75.3051 6.23929 76.7647C5.22559 78.4009 5.31213 80.6415 6.44945 82.1879C7.45079 83.5483 9.10114 84.131 10.7948 83.6971C11.2862 83.57 11.759 83.3841 12.272 83.2168C12.272 81.8222 12.272 80.4742 12.272 79.0796C13.6844 79.0796 15.0504 79.0796 16.5308 79.0796C16.5308 79.749 16.5308 80.4277 16.5308 81.1094C16.5308 82.4916 16.5494 83.8737 16.5154 85.2528C16.5092 85.51 16.3701 85.8819 16.1754 85.9965C12.9272 87.8838 9.49982 88.6865 5.86224 87.3043C2.25557 85.9346 0.206542 82.4978 0.53414 78.6179C0.858648 74.7751 3.52888 71.7257 7.34571 70.951C10.6619 70.2785 13.7246 70.9076 16.4505 72.9839C16.5463 73.0645 16.6637 73.1203 16.8059 73.204Z" fill="#234487"/>
<path d="M36.403 85.2217C37.0303 83.948 37.6268 82.7425 38.248 81.4844C39.784 82.6651 41.4282 83.508 43.2702 83.8861C43.8574 84.0069 44.5095 84.0689 45.0812 83.9387C45.4675 83.852 45.9033 83.4398 46.0733 83.0617C46.2927 82.5721 45.9651 82.0917 45.4799 81.881C44.7598 81.568 44.0088 81.3263 43.264 81.0722C42.2317 80.7158 41.1624 80.4462 40.1641 80.0123C38.5478 79.312 37.5619 78.1065 37.4877 76.2533C37.4074 74.3226 38.1182 72.8103 39.7469 71.7722C41.2675 70.8022 42.9765 70.5697 44.7351 70.6286C47.0653 70.7061 49.238 71.3197 51.287 72.5624C50.6658 73.8547 50.0724 75.0881 49.5563 76.1603C47.8102 75.6025 46.1567 75.0571 44.4878 74.5581C44.1664 74.4621 43.7523 74.4714 43.4401 74.5891C43.1218 74.71 42.6706 75.0013 42.6489 75.2554C42.615 75.6118 42.822 76.1417 43.1033 76.3462C43.5823 76.6902 44.1973 76.8607 44.7691 77.0652C46.0578 77.5301 47.3929 77.8895 48.6415 78.4473C50.3568 79.2128 51.2129 80.6166 51.2314 82.5225C51.253 84.4625 50.4526 85.9376 48.7682 86.8828C46.8366 87.9674 44.7382 88.1069 42.6057 87.7908C40.3589 87.4623 38.2727 86.6968 36.403 85.2217Z" fill="#234487"/>
<path d="M109.395 87.6017C109.395 86.3219 109.399 85.073 109.395 83.8272C109.392 82.7271 109.411 81.6269 109.368 80.5268C109.334 79.6405 108.833 79.0176 108.088 78.8099C107.303 78.593 106.345 78.8843 105.956 79.625C105.684 80.1425 105.523 80.7747 105.504 81.3635C105.449 83.1795 105.483 84.9955 105.483 86.8115C105.483 87.0625 105.483 87.3104 105.483 87.6079C103.866 87.6079 102.321 87.6079 100.714 87.6079C100.714 81.7819 100.714 75.9403 100.714 70.0615C102.272 70.0615 103.82 70.0615 105.443 70.0615C105.443 72.1626 105.443 74.273 105.443 76.5322C105.644 76.3617 105.739 76.3029 105.807 76.2192C107.266 74.521 109.136 74.1987 111.16 74.7906C113.104 75.3608 114.071 76.8731 114.139 78.8161C114.241 81.723 114.167 84.6391 114.167 87.6017C112.61 87.6017 111.067 87.6017 109.395 87.6017Z" fill="#254588"/>
<path d="M76.7439 82.3396C77.5475 84.6143 79.7078 84.8777 82.0319 83.0586C82.7798 83.9046 83.5339 84.7568 84.3374 85.6679C83.7471 86.3931 82.7767 86.9757 81.6826 87.3507C79.8932 87.9612 78.0698 87.9952 76.2649 87.4684C73.2022 86.579 71.4251 83.6164 71.9011 80.285C72.4326 76.5662 75.0287 74.5023 78.9722 74.5736C83.812 74.6634 85.7405 78.627 85.2769 82.3396C82.4645 82.3396 79.646 82.3396 76.7439 82.3396ZM80.5762 79.9689C80.5948 78.7107 79.989 77.9391 78.9413 77.8399C77.7267 77.7252 76.8985 78.4876 76.6481 79.9689C77.9431 79.9689 79.2287 79.9689 80.5762 79.9689Z" fill="#234487"/>
<path d="M67.9267 87.6236C66.1867 87.6236 64.6136 87.6236 62.988 87.6236C62.988 83.4121 62.988 79.2284 62.988 74.9611C61.3716 74.9611 59.8047 74.9611 58.2069 74.9611C58.2069 73.6317 58.2069 72.3921 58.2069 71.0781C63.0405 71.0781 67.8649 71.0781 72.7139 71.0781C72.7139 72.3518 72.7139 73.6162 72.7139 74.9302C71.1316 74.9302 69.5832 74.9302 67.9267 74.9302C67.9267 79.1727 67.9267 83.3718 67.9267 87.6236Z" fill="#224487"/>
<path d="M98.9403 77.9516C97.7102 78.5559 96.5296 79.1354 95.315 79.7335C94.6073 78.7171 93.7172 78.1717 92.4903 78.6179C91.5322 78.9681 91.0563 80.0279 91.1212 81.5278C91.2046 83.4368 92.6726 84.5494 94.1623 83.7808C94.6104 83.5515 94.9411 83.0866 95.4016 82.6559C96.508 83.2137 97.7226 83.8242 98.9341 84.4347C97.8678 86.9882 94.8175 88.2712 91.356 87.6669C88.4262 87.1556 86.4266 84.7849 86.2597 81.6239C86.0836 78.3142 87.8699 75.6646 90.8307 74.8372C94.1623 73.9106 97.4506 75.1501 98.9403 77.9516Z" fill="#234487"/>
<path d="M116.087 85.5626C116.108 84.2052 117.014 83.3375 118.377 83.3685C119.678 83.3995 120.509 84.292 120.5 85.6493C120.491 87.0005 119.582 87.8713 118.213 87.8403C116.921 87.8124 116.065 86.8951 116.087 85.5626Z" fill="#254587"/>
<path d="M50.8389 5.03589C51.8897 6.04925 52.9714 6.99134 53.9264 8.045C54.8968 9.11414 54.7485 10.6791 53.6606 11.8598C51.6857 14.0012 49.6614 16.0961 47.7144 18.2623C44.2962 22.0648 42.7911 26.58 43.2269 31.6468C43.9161 39.6422 49.9149 46.0199 57.8699 47.4082C66.8881 48.9825 75.9496 42.8217 77.8163 33.844C79.343 26.487 76.4596 19.443 70.2259 15.2935C69.9323 15.0983 69.6449 14.8875 69.4008 14.7171C71.1438 12.9631 72.8653 11.2276 74.6176 9.46433C74.7196 9.5604 74.8896 9.70915 75.0503 9.87029C79.1483 13.9764 83.234 18.095 87.3507 22.1794C89.3842 24.1969 90.5154 26.6203 90.6205 29.4589C90.7255 32.2976 89.8818 34.9007 87.876 36.9368C81.1479 43.7607 74.4198 50.5878 67.565 57.2785C63.674 61.0747 57.3229 61.0778 53.3763 57.2103C46.5894 50.5568 39.8984 43.801 33.2259 37.0297C29.4956 33.2459 29.3874 26.6482 33.0806 22.8457C38.8661 16.8864 44.7845 11.0603 50.6504 5.18154C50.7153 5.11336 50.8018 5.06378 50.8389 5.03589Z" fill="#EAB574"/>
<path d="M65.2968 28.7028C66.2208 30.7822 64.8146 34.2933 61.5726 34.8387C59.3227 35.2168 57.32 34.1818 56.3558 32.2449C55.3885 30.2987 55.7686 28.1233 57.3726 26.4901C58.0463 25.8083 58.7355 25.142 59.4587 24.4324C60.1695 27.5716 61.7704 28.7183 65.2968 28.7028Z" fill="#E9B575"/>
</svg>
