<svg width="120" height="88" viewBox="0 0 120 88" fill="none" xmlns="http://www.w3.org/2000/svg">
<path d="M50.4041 0C52.2739 1.87488 54.1066 3.6537 55.8744 5.50069C58.2047 7.93648 58.1274 11.7265 55.7291 14.3204C53.7357 16.4804 51.6713 18.5753 49.7211 20.7725C45.2615 25.799 44.9833 33.1591 48.9856 38.5141C52.3605 43.0324 58.1212 45.0839 63.6101 43.7266C69.0247 42.3847 73.2866 37.7889 74.0499 32.2263C74.8071 26.6946 72.8848 22.1918 68.4931 18.7519C68.3139 18.6125 68.1161 18.4978 67.8781 18.3428C66.1999 19.9698 64.5218 21.5751 62.8714 23.2113C62.3831 23.6948 62.414 24.4168 62.8467 24.8755C63.2948 25.3496 64.0149 25.362 64.565 24.8817C64.9483 24.547 65.3068 24.1813 65.7302 23.7785C67.4701 25.3496 68.4437 27.2803 68.5611 29.5921C68.796 34.2034 65.5973 37.8881 60.9336 38.449C56.7861 38.9511 52.7591 35.9203 51.9649 31.591C51.4549 28.8019 52.1874 26.2917 54.1777 24.2495C60.6864 17.5681 67.2229 10.9146 73.7903 4.20841C74.2323 4.61438 74.4177 4.77243 74.5877 4.94597C79.514 9.88574 84.4465 14.8193 89.3667 19.7684C95.0718 25.5077 95.0935 34.2344 89.3945 39.9768C82.9507 46.4692 76.4884 52.9491 70.0075 59.4074C64.3981 64.998 55.6859 65.0352 50.0704 59.4632C43.54 52.9832 37.0437 46.4692 30.5752 39.9272C24.9102 34.1941 24.9597 25.4891 30.6463 19.7746C37.0282 13.3628 43.4257 6.9665 49.8169 0.560914C49.9962 0.378075 50.1816 0.210731 50.4041 0ZM50.3392 5.03584C50.3021 5.06373 50.2125 5.11331 50.1445 5.18149C44.2818 11.0634 38.3603 16.8894 32.5748 22.8457C28.8816 26.6481 28.9928 33.2458 32.72 37.0297C39.3925 43.801 46.0805 50.5567 52.8704 57.2102C56.8139 61.0778 63.1681 61.0747 67.0591 57.2784C73.917 50.5877 80.642 43.7576 87.3702 36.9367C89.379 34.9007 90.2197 32.2976 90.1146 29.4589C90.0095 26.6202 88.8784 24.1968 86.8448 22.1794C82.7282 18.0918 78.6425 13.9733 74.5444 9.87024C74.3837 9.7091 74.2137 9.56035 74.1117 9.46428C72.3594 11.2276 70.6379 12.963 68.8949 14.717C69.139 14.8875 69.4265 15.0982 69.7201 15.2935C75.9537 19.443 78.8403 26.487 77.3104 33.8439C75.4438 42.8217 66.3823 48.9855 57.3641 47.4082C49.409 46.0167 43.4102 39.6421 42.721 31.6468C42.2853 26.5768 43.7873 22.0647 47.2085 18.2623C49.1556 16.0961 51.1799 14.0012 53.1547 11.8598C54.2426 10.6791 54.3909 9.11409 53.4205 8.04495C52.4717 6.99129 51.39 6.0523 50.3392 5.03584ZM64.7968 28.7027C61.2705 28.7182 59.6696 27.5716 58.9619 24.4323C58.2418 25.142 57.5495 25.8083 56.8757 26.4901C55.2718 28.1201 54.8916 30.2956 55.859 32.2449C56.8201 34.1786 58.8259 35.2168 61.0758 34.8387C64.3147 34.2933 65.7209 30.7822 64.7968 28.7027Z" fill="white"/>
<path d="M35.7484 87.6547C34.1599 87.6547 32.5775 87.6671 30.9983 87.6392C30.8128 87.6361 30.5439 87.4377 30.4636 87.2642C30.2102 86.7095 30.0124 86.1269 29.8269 85.5443C29.7033 85.1538 29.521 84.9771 29.0728 84.9833C27.2123 85.0112 25.3487 85.0081 23.4851 84.9864C23.0494 84.9802 22.8578 85.1383 22.7218 85.5412C22.4838 86.2384 22.3633 87.1898 21.8595 87.5183C21.3156 87.8747 20.3853 87.6454 19.625 87.6547C18.7597 87.6671 17.8912 87.6578 16.9084 87.6578C17.0043 87.3727 17.063 87.1433 17.1557 86.9295C19.3222 81.8379 21.501 76.7525 23.6489 71.6515C23.8653 71.1402 24.1249 70.976 24.6595 70.9946C25.9328 71.0348 27.2123 70.9853 28.4856 71.0256C28.7236 71.0318 29.0821 71.227 29.1656 71.4253C31.3846 76.7711 33.5789 82.1292 35.7731 87.4842C35.7793 87.4997 35.767 87.5276 35.7484 87.6547ZM26.3315 75.9591C25.6083 77.8898 24.9655 79.6004 24.3041 81.3575C25.6763 81.3575 26.9435 81.3575 28.2291 81.3575C28.2168 81.2646 28.2199 81.1871 28.1951 81.122C27.6017 79.4734 27.0053 77.8247 26.3315 75.9591Z" fill="white"/>
<path d="M16.3059 73.204C15.3169 74.4002 14.4083 75.4941 13.4718 76.6252C12.4241 75.7172 11.2868 75.0819 9.93625 74.8743C8.20555 74.6109 6.64482 75.3051 5.73929 76.7647C4.72559 78.4009 4.81213 80.6415 5.94945 82.1879C6.95079 83.5483 8.60114 84.131 10.2948 83.6971C10.7862 83.57 11.259 83.3841 11.772 83.2168C11.772 81.8222 11.772 80.4742 11.772 79.0796C13.1844 79.0796 14.5504 79.0796 16.0308 79.0796C16.0308 79.749 16.0308 80.4277 16.0308 81.1094C16.0308 82.4916 16.0494 83.8737 16.0154 85.2528C16.0092 85.51 15.8701 85.8819 15.6754 85.9965C12.4272 87.8838 8.99982 88.6865 5.36224 87.3043C1.75557 85.9346 -0.293458 82.4978 0.0341404 78.6179C0.358648 74.7751 3.02888 71.7257 6.84571 70.951C10.1619 70.2785 13.2246 70.9076 15.9505 72.9839C16.0463 73.0645 16.1637 73.1203 16.3059 73.204Z" fill="white"/>
<path d="M35.9028 85.2217C36.5302 83.948 37.1267 82.7425 37.7479 81.4843C39.2839 82.6651 40.9281 83.508 42.77 83.8861C43.3572 84.0069 44.0093 84.0689 44.5811 83.9387C44.9674 83.852 45.4032 83.4398 45.5732 83.0617C45.7926 82.5721 45.465 82.0917 44.9798 81.881C44.2597 81.568 43.5087 81.3263 42.7638 81.0722C41.7316 80.7158 40.6623 80.4462 39.664 80.0123C38.0477 79.312 37.0618 78.1065 36.9876 76.2533C36.9073 74.3226 37.6181 72.8103 39.2468 71.7722C40.7674 70.8022 42.4764 70.5697 44.2349 70.6286C46.5652 70.7061 48.7379 71.3197 50.7869 72.5624C50.1657 73.8547 49.5723 75.0881 49.0562 76.1603C47.31 75.6025 45.6566 75.0571 43.9877 74.5581C43.6663 74.4621 43.2522 74.4714 42.94 74.5891C42.6217 74.71 42.1705 75.0013 42.1488 75.2554C42.1148 75.6118 42.3219 76.1417 42.6031 76.3462C43.0822 76.6902 43.6972 76.8607 44.2689 77.0652C45.5577 77.5301 46.8928 77.8895 48.1414 78.4473C49.8567 79.2128 50.7127 80.6166 50.7313 82.5225C50.7529 84.4625 49.9525 85.9376 48.2681 86.8828C46.3365 87.9674 44.238 88.1069 42.1056 87.7908C39.8587 87.4623 37.7726 86.6968 35.9028 85.2217Z" fill="white"/>
<path d="M108.895 87.6017C108.895 86.3219 108.899 85.073 108.895 83.8272C108.892 82.7271 108.911 81.6269 108.868 80.5268C108.834 79.6405 108.333 79.0176 107.588 78.8099C106.803 78.593 105.845 78.8843 105.456 79.625C105.184 80.1425 105.023 80.7747 105.004 81.3635C104.949 83.1795 104.983 84.9955 104.983 86.8115C104.983 87.0625 104.983 87.3104 104.983 87.6079C103.366 87.6079 101.821 87.6079 100.214 87.6079C100.214 81.7819 100.214 75.9403 100.214 70.0615C101.772 70.0615 103.32 70.0615 104.943 70.0615C104.943 72.1626 104.943 74.273 104.943 76.5322C105.144 76.3617 105.239 76.3029 105.307 76.2192C106.766 74.521 108.636 74.1987 110.66 74.7906C112.604 75.3608 113.571 76.8731 113.639 78.8161C113.741 81.723 113.667 84.6391 113.667 87.6017C112.11 87.6017 110.567 87.6017 108.895 87.6017Z" fill="white"/>
<path d="M76.2439 82.3396C77.0475 84.6143 79.2078 84.8777 81.5319 83.0586C82.2798 83.9046 83.0339 84.7568 83.8374 85.6679C83.2471 86.3931 82.2767 86.9757 81.1826 87.3507C79.3932 87.9612 77.5698 87.9952 75.7649 87.4684C72.7022 86.579 70.9251 83.6164 71.4011 80.285C71.9326 76.5662 74.5287 74.5023 78.4722 74.5736C83.312 74.6634 85.2405 78.627 84.7769 82.3396C81.9645 82.3396 79.146 82.3396 76.2439 82.3396ZM80.0762 79.9689C80.0948 78.7107 79.489 77.9391 78.4413 77.8399C77.2267 77.7252 76.3985 78.4876 76.1481 79.9689C77.4431 79.9689 78.7287 79.9689 80.0762 79.9689Z" fill="white"/>
<path d="M67.4268 87.6236C65.6868 87.6236 64.1137 87.6236 62.4881 87.6236C62.4881 83.4121 62.4881 79.2284 62.4881 74.9611C60.8718 74.9611 59.3048 74.9611 57.707 74.9611C57.707 73.6317 57.707 72.3921 57.707 71.0781C62.5406 71.0781 67.365 71.0781 72.2141 71.0781C72.2141 72.3518 72.2141 73.6162 72.2141 74.9302C70.6317 74.9302 69.0833 74.9302 67.4268 74.9302C67.4268 79.1727 67.4268 83.3718 67.4268 87.6236Z" fill="white"/>
<path d="M98.4403 77.9516C97.2102 78.5559 96.0296 79.1354 94.815 79.7335C94.1073 78.7171 93.2172 78.1717 91.9903 78.6179C91.0322 78.9681 90.5563 80.0279 90.6212 81.5278C90.7046 83.4368 92.1726 84.5494 93.6623 83.7808C94.1104 83.5515 94.4411 83.0866 94.9016 82.6559C96.008 83.2137 97.2226 83.8242 98.4341 84.4347C97.3678 86.9882 94.3175 88.2712 90.856 87.6669C87.9262 87.1556 85.9266 84.7849 85.7597 81.6239C85.5836 78.3142 87.3699 75.6646 90.3307 74.8372C93.6623 73.9106 96.9506 75.1501 98.4403 77.9516Z" fill="white"/>
<path d="M115.587 85.5626C115.608 84.2052 116.514 83.3375 117.877 83.3685C119.178 83.3995 120.009 84.292 120 85.6493C119.991 87.0005 119.082 87.8713 117.713 87.8403C116.421 87.8124 115.565 86.8951 115.587 85.5626Z" fill="white"/>
<path d="M50.3389 5.03589C51.3897 6.04925 52.4714 6.99134 53.4264 8.045C54.3968 9.11414 54.2485 10.6791 53.1606 11.8598C51.1857 14.0012 49.1614 16.0961 47.2144 18.2623C43.7962 22.0648 42.2911 26.58 42.7269 31.6468C43.4161 39.6422 49.4149 46.0199 57.3699 47.4082C66.3881 48.9825 75.4496 42.8217 77.3163 33.844C78.843 26.487 75.9596 19.443 69.7259 15.2935C69.4323 15.0983 69.1449 14.8875 68.9008 14.7171C70.6438 12.9631 72.3653 11.2276 74.1176 9.46433C74.2196 9.5604 74.3896 9.70915 74.5503 9.87029C78.6483 13.9764 82.734 18.095 86.8507 22.1794C88.8842 24.1969 90.0154 26.6203 90.1205 29.4589C90.2255 32.2976 89.3818 34.9007 87.376 36.9368C80.6479 43.7607 73.9198 50.5878 67.065 57.2785C63.174 61.0747 56.8229 61.0778 52.8763 57.2103C46.0894 50.5568 39.3984 43.801 32.7259 37.0297C28.9956 33.2459 28.8874 26.6482 32.5806 22.8457C38.3662 16.8864 44.2845 11.0603 50.1504 5.18154C50.2153 5.11336 50.3018 5.06378 50.3389 5.03589Z" fill="#EAB574"/>
<path d="M64.7968 28.7028C65.7208 30.7822 64.3146 34.2933 61.0726 34.8387C58.8227 35.2168 56.82 34.1818 55.8558 32.2449C54.8885 30.2987 55.2686 28.1233 56.8726 26.4901C57.5463 25.8083 58.2355 25.142 58.9587 24.4324C59.6695 27.5716 61.2704 28.7183 64.7968 28.7028Z" fill="#E9B575"/>
</svg>
